{
  "accessors": [
    {
      "bufferView": 2,
      "componentType": 5126,
      "count": 3610,
      "max": [
        6.666100025177002,
        1.120110034942627,
        1.8391799926757813
      ],
      "min": [
        -6.184690952301025,
        -1.053905963897705,
        -0.5201770067214966
      ],
      "type": "VEC3"
    },
    {
      "bufferView": 2,
      "byteOffset": 43320,
      "componentType": 5126,
      "count": 3610,
      "max": [
        0.9979953765869141,
        1.0,
        1.0
      ],
      "min": [
        -0.9979949593544006,
        -0.999972939491272,
        -0.9999726414680481
      ],
      "type": "VEC3"
    },
    {
      "bufferView": 1,
      "componentType": 5126,
      "count": 3610,
      "max": [
        0.9271069765090942,
        -0.17668399214744568
      ],
      "min": [
        -0.23745299875736237,
        -1.7262779474258423
      ],
      "type": "VEC2"
    },
    {
      "bufferView": 0,
      "componentType": 5125,
      "count": 5478,
      "type": "SCALAR"
    },
    {
      "bufferView": 2,
      "byteOffset": 86640,
      "componentType": 5126,
      "count": 9314,
      "max": [
        7.000040054321289,
        1.2744940519332886,
        2.4806089401245117
      ],
      "min": [
        -6.518630027770996,
        -1.2744940519332886,
        -0.6188539862632751
      ],
      "type": "VEC3"
    },
    {
      "bufferView": 2,
      "byteOffset": 198408,
      "componentType": 5126,
      "count": 9314,
      "max": [
        1.0,
        1.0,
        1.0
      ],
      "min": [
        -1.0,
        -1.0,
        -1.0
      ],
      "type": "VEC3"
    },
    {
      "bufferView": 1,
      "byteOffset": 28880,
      "componentType": 5126,
      "count": 9314,
      "max": [
        2.7262330055236816,
        0.9299659729003906
      ],
      "min": [
        -0.43689799308776855,
        -1.863679051399231
      ],
      "type": "VEC2"
    },
    {
      "bufferView": 0,
      "byteOffset": 21912,
      "componentType": 5125,
      "count": 15270,
      "type": "SCALAR"
    },
    {
      "bufferView": 2,
      "byteOffset": 310176,
      "componentType": 5126,
      "count": 4115,
      "max": [
        6.970512866973877,
        1.2744940519332886,
        2.2750000953674316
      ],
      "min": [
        -6.456122875213623,
        -1.2744940519332886,
        -0.6188539862632751
      ],
      "type": "VEC3"
    },
    {
      "bufferView": 2,
      "byteOffset": 359556,
      "componentType": 5126,
      "count": 4115,
      "max": [
        1.0,
        1.0,
        1.0
      ],
      "min": [
        -1.0,
        -1.0,
        -1.0
      ],
      "type": "VEC3"
    },
    {
      "bufferView": 1,
      "byteOffset": 103392,
      "componentType": 5126,
      "count": 4115,
      "max": [
        0.9391319751739502,
        0.9031170010566711
      ],
      "min": [
        -0.06105099990963936,
        -1.7822389602661133
      ],
      "type": "VEC2"
    },
    {
      "bufferView": 0,
      "byteOffset": 82992,
      "componentType": 5125,
      "count": 7626,
      "type": "SCALAR"
    },
    {
      "bufferView": 2,
      "byteOffset": 408936,
      "componentType": 5126,
      "count": 6936,
      "max": [
        5.8253607749938965,
        0.6556310057640076,
        0.10551299899816513
      ],
      "min": [
        -5.350893974304199,
        -0.6556310057640076,
        -0.7866039872169495
      ],
      "type": "VEC3"
    },
    {
      "bufferView": 2,
      "byteOffset": 492168,
      "componentType": 5126,
      "count": 6936,
      "max": [
        1.0,
        1.0,
        1.0
      ],
      "min": [
        -1.0,
        -1.0,
        -1.0
      ],
      "type": "VEC3"
    },
    {
      "bufferView": 1,
      "byteOffset": 136312,
      "componentType": 5126,
      "count": 6936,
      "max": [
        -0.017992999404668808,
        -11.688514709472656
      ],
      "min": [
        -0.09603399783372879,
        -12.246838569641113
      ],
      "type": "VEC2"
    },
    {
      "bufferView": 0,
      "byteOffset": 113496,
      "componentType": 5125,
      "count": 10368,
      "type": "SCALAR"
    },
    {
      "bufferView": 2,
      "byteOffset": 575400,
      "componentType": 5126,
      "count": 48,
      "max": [
        6.434226036071777,
        0.5496339797973633,
        -0.031936001032590866
      ],
      "min": [
        -5.952816009521484,
        -0.5496339797973633,
        -0.08279900252819061
      ],
      "type": "VEC3"
    },
    {
      "bufferView": 2,
      "byteOffset": 575976,
      "componentType": 5126,
      "count": 48,
      "max": [
        0.8509044647216797,
        0.9293496608734131,
        0.8900489807128906
      ],
      "min": [
        -0.8508902788162231,
        -0.9293484091758728,
        -0.5236799120903015
      ],
      "type": "VEC3"
    },
    {
      "bufferView": 1,
      "byteOffset": 191800,
      "componentType": 5126,
      "count": 48,
      "max": [
        0.0,
        0.0
      ],
      "min": [
        0.0,
        0.0
      ],
      "type": "VEC2"
    },
    {
      "bufferView": 0,
      "byteOffset": 154968,
      "componentType": 5125,
      "count": 72,
      "type": "SCALAR"
    }
  ],
  "asset": {
    "extras": {
      "author": "own.guest (https://sketchfab.com/own.guest)",
      "license": "CC-BY-4.0 (http://creativecommons.org/licenses/by/4.0/)",
      "source": "https://sketchfab.com/3d-models/32-kiha-32-diesel-95c5d6515ff04092987d698ab2c8442a",
      "title": "国鉄キハ32形気動車 KIHA 32 Diesel"
    },
    "generator": "Sketchfab-12.65.0",
    "version": "2.0"
  },
  "bufferViews": [
    {
      "buffer": 0,
      "byteLength": 155256,
      "name": "floatBufferViews",
      "target": 34963
    },
    {
      "buffer": 0,
      "byteLength": 192184,
      "byteOffset": 155256,
      "byteStride": 8,
      "name": "floatBufferViews",
      "target": 34962
    },
    {
      "buffer": 0,
      "byteLength": 576552,
      "byteOffset": 347440,
      "byteStride": 12,
      "name": "floatBufferViews",
      "target": 34962
    }
  ],
  "buffers": [
    {
      "byteLength": 923992,
      "uri": "scene.bin"
    }
  ],
  "extensionsUsed": [
    "KHR_materials_clearcoat"
  ],
  "images": [
    {
      "uri": "textures/1591184735691_baseColor.png"
    },
    {
      "uri": "textures/1591184735691_metallicRoughness.png"
    },
    {
      "uri": "textures/1591184735691_clearcoat.png"
    },
    {
      "uri": "textures/1591184735691_clearcoat_roughness.png"
    },
    {
      "uri": "textures/material_baseColor.png"
    },
    {
      "uri": "textures/material_metallicRoughness.png"
    }
  ],
  "materials": [
    {
      "extensions": {
        "KHR_materials_clearcoat": {
          "clearcoatFactor": 0.2195090940686783,
          "clearcoatRoughnessFactor": 1.0,
          "clearcoatRoughnessTexture": {
            "index": 3
          },
          "clearcoatTexture": {
            "index": 2
          }
        }
      },
      "name": "1591184735691",
      "pbrMetallicRoughness": {
        "baseColorTexture": {
          "index": 0
        },
        "metallicRoughnessTexture": {
          "index": 1
        }
      }
    },
    {
      "doubleSided": true,
      "name": "material",
      "pbrMetallicRoughness": {
        "baseColorTexture": {
          "index": 4
        },
        "metallicFactor": 0.0,
        "metallicRoughnessTexture": {
          "index": 5
        },
        "roughnessFactor": 0.6
      }
    },
    {
      "name": "standard",
      "pbrMetallicRoughness": {
        "baseColorTexture": {
          "index": 0
        },
        "metallicFactor": 0.0,
        "roughnessFactor": 0.6
      }
    }
  ],
  "meshes": [
    {
      "name": "Object_0",
      "primitives": [
        {
          "attributes": {
            "NORMAL": 1,
            "POSITION": 0,
            "TEXCOORD_0": 2
          },
          "indices": 3,
          "material": 0,
          "mode": 4
        }
      ]
    },
    {
      "name": "Object_1",
      "primitives": [
        {
          "attributes": {
            "NORMAL": 5,
            "POSITION": 4,
            "TEXCOORD_0": 6
          },
          "indices": 7,
          "material": 0,
          "mode": 4
        }
      ]
    },
    {
      "name": "Object_2",
      "primitives": [
        {
          "attributes": {
            "NORMAL": 9,
            "POSITION": 8,
            "TEXCOORD_0": 10
          },
          "indices": 11,
          "material": 0,
          "mode": 4
        }
      ]
    },
    {
      "name": "Object_3",
      "primitives": [
        {
          "attributes": {
            "NORMAL": 13,
            "POSITION": 12,
            "TEXCOORD_0": 14
          },
          "indices": 15,
          "material": 1,
          "mode": 4
        }
      ]
    },
    {
      "name": "Object_4",
      "primitives": [
        {
          "attributes": {
            "NORMAL": 17,
            "POSITION": 16,
            "TEXCOORD_0": 18
          },
          "indices": 19,
          "material": 2,
          "mode": 4
        }
      ]
    }
  ],
  "nodes": [
    {
      "children": [
        1
      ],
      "matrix": [
        1.0,
        0.0,
        0.0,
        0.0,
        0.0,
        2.220446049250313e-16,
        -1.0,
        0.0,
        0.0,
        1.0,
        2.220446049250313e-16,
        0.0,
        0.0,
        0.0,
        0.0,
        1.0
      ],
      "name": "Sketchfab_model"
    },
    {
      "children": [
        2,
        3,
        4,
        5,
        6
      ],
      "name": "kiha32.obj.cleaner.materialmerger.gles"
    },
    {
      "mesh": 0,
      "name": "Object_2"
    },
    {
      "mesh": 1,
      "name": "Object_3"
    },
    {
      "mesh": 2,
      "name": "Object_4"
    },
    {
      "mesh": 3,
      "name": "Object_5"
    },
    {
      "mesh": 4,
      "name": "Object_6"
    }
  ],
  "samplers": [
    {
      "magFilter": 9729,
      "minFilter": 9987,
      "wrapS": 10497,
      "wrapT": 10497
    }
  ],
  "scene": 0,
  "scenes": [
    {
      "name": "Sketchfab_Scene",
      "nodes": [
        0
      ]
    }
  ],
  "textures": [
    {
      "sampler": 0,
      "source": 0
    },
    {
      "sampler": 0,
      "source": 1
    },
    {
      "sampler": 0,
      "source": 2
    },
    {
      "sampler": 0,
      "source": 3
    },
    {
      "sampler": 0,
      "source": 4
    },
    {
      "sampler": 0,
      "source": 5
    }
  ]
}
